<?xml version="1.0" encoding="UTF-8" standalone="no"?>
<!-- Created with Inkscape (http://www.inkscape.org/) -->

<svg
   xmlns:dc="http://purl.org/dc/elements/1.1/"
   xmlns:cc="http://creativecommons.org/ns#"
   xmlns:rdf="http://www.w3.org/1999/02/22-rdf-syntax-ns#"
   xmlns:svg="http://www.w3.org/2000/svg"
   xmlns="http://www.w3.org/2000/svg"
   xmlns:sodipodi="http://sodipodi.sourceforge.net/DTD/sodipodi-0.dtd"
   xmlns:inkscape="http://www.inkscape.org/namespaces/inkscape"
   width="256"
   height="320"
   id="svg2"
   version="1.1"
   inkscape:version="0.48.3.1 r9886"
   sodipodi:docname="logo.svg"
   inkscape:export-filename="/home/stick/work/scm/prusnak/web/logo.png"
   inkscape:export-xdpi="90"
   inkscape:export-ydpi="90">
  <defs
     id="defs4">
    <inkscape:perspective
       sodipodi:type="inkscape:persp3d"
       inkscape:vp_x="0 : 526.18109 : 1"
       inkscape:vp_y="0 : 1000 : 0"
       inkscape:vp_z="744.09448 : 526.18109 : 1"
       inkscape:persp3d-origin="372.04724 : 350.78739 : 1"
       id="perspective3308" />
    <inkscape:perspective
       id="perspective3308-9"
       inkscape:persp3d-origin="372.04724 : 350.78739 : 1"
       inkscape:vp_z="744.09448 : 526.18109 : 1"
       inkscape:vp_y="0 : 1000 : 0"
       inkscape:vp_x="0 : 526.18109 : 1"
       sodipodi:type="inkscape:persp3d" />
    <inkscape:perspective
       id="perspective3308-98"
       inkscape:persp3d-origin="372.04724 : 350.78739 : 1"
       inkscape:vp_z="744.09448 : 526.18109 : 1"
       inkscape:vp_y="0 : 1000 : 0"
       inkscape:vp_x="0 : 526.18109 : 1"
       sodipodi:type="inkscape:persp3d" />
  </defs>
  <sodipodi:namedview
     id="base"
     pagecolor="#ffffff"
     bordercolor="#666666"
     borderopacity="1.0"
     inkscape:pageopacity="0.0"
     inkscape:pageshadow="2"
     inkscape:zoom="1.979899"
     inkscape:cx="42.632383"
     inkscape:cy="197.58022"
     inkscape:document-units="px"
     inkscape:current-layer="layer1"
     showgrid="false"
     inkscape:window-width="1920"
     inkscape:window-height="1141"
     inkscape:window-x="0"
     inkscape:window-y="27"
     inkscape:window-maximized="1"
     inkscape:snap-global="false"
     inkscape:snap-bbox="false"
     inkscape:object-paths="true"
     inkscape:snap-intersection-paths="false"
     inkscape:snap-nodes="true"
     inkscape:snap-page="true"
     inkscape:object-nodes="true" />
  <metadata
     id="metadata7">
    <rdf:RDF>
      <cc:Work
         rdf:about="">
        <dc:format>image/svg+xml</dc:format>
        <dc:type
           rdf:resource="http://purl.org/dc/dcmitype/StillImage" />
        <dc:title></dc:title>
      </cc:Work>
    </rdf:RDF>
  </metadata>
  <g
     inkscape:label="Layer 1"
     inkscape:groupmode="layer"
     id="layer1"
     transform="translate(0,-732.36218)">
    <path
       style="font-size:medium;font-style:normal;font-variant:normal;font-weight:normal;font-stretch:normal;text-indent:0;text-align:start;text-decoration:none;line-height:normal;letter-spacing:normal;word-spacing:normal;text-transform:none;direction:ltr;block-progression:tb;writing-mode:lr-tb;text-anchor:start;baseline-shift:baseline;color:#000000;fill:#000000;fill-opacity:1;stroke:none;stroke-width:32;marker:none;visibility:visible;display:inline;overflow:visible;enable-background:accumulate;font-family:Sans;-inkscape-font-specification:Sans"
       d="M 102.42989,936.75879 58.648636,860.94629 102.42989,785.10257 189.99239,785.10257 233.77364,860.94629 189.99239,936.75879 z M 114.24239,926.54004 184.08614,926.54004 218.99239,866.07129 149.17989,866.07129 z M 105.39864,921.44629 140.30489,860.94629 105.36739,800.44629 70.461136,860.94629 z M 149.17989,855.82129 218.99239,855.82129 184.08614,795.32129 114.24239,795.32129 z"
       id="path3324"
       inkscape:connector-curvature="0"
       sodipodi:nodetypes="cccccccccccccccccccccc" />
    <path
       style="font-size:medium;font-style:normal;font-variant:normal;font-weight:normal;font-stretch:normal;text-indent:0;text-align:start;text-decoration:none;line-height:normal;letter-spacing:normal;word-spacing:normal;text-transform:none;direction:ltr;block-progression:tb;writing-mode:lr-tb;text-anchor:start;baseline-shift:baseline;color:#000000;fill:#000000;fill-opacity:1;stroke:none;stroke-width:21.70376015000000081;marker:none;visibility:visible;display:inline;overflow:visible;enable-background:accumulate;font-family:Sans;-inkscape-font-specification:Sans"
       d="M 215.24239,985.04004 123.14864,946.41504 179.24239,946.41504 197.64864,954.13379 199.74239,939.16504 228.67989,889.07129 z M 83.648636,923.54004 3.7111356,860.44629 83.679886,798.29004 54.867386,848.19629 38.898636,860.60254 54.304886,872.75879 z M 229.14864,833.63379 201.21114,785.22757 199.27364,769.85257 184.92989,775.44627 125.17989,775.44627 217.33614,739.57127 z"
       id="path3352"
       inkscape:connector-curvature="0"
       sodipodi:nodetypes="ccccccccccccccccccccc" />
    <g
       transform="translate(-0.002795,-0.11815714)"
       id="layer1-6"
       inkscape:label="Layer 1"
       style="fill:#000000">
      <path
         sodipodi:nodetypes="ccccccccccccc"
         inkscape:connector-curvature="0"
         id="path3040"
         transform="translate(0,988.36218)"
         d="M 15.15625,12.28125 15.15625,50.71875 53.5625,50.71875 53.5625,26.53125 34.375,26.53125 34.375,36.53125 43.5625,36.53125 43.5625,40.6875 25.15625,40.6875 25.15625,22.3125 53.5625,22.3125 53.5625,12.28125 z"
         style="font-size:64.99397278px;font-style:normal;font-variant:normal;font-weight:normal;font-stretch:normal;line-height:125%;letter-spacing:0px;word-spacing:0px;fill:#000000;fill-opacity:1;stroke:none;font-family:ZipSonik;-inkscape-font-specification:ZipSonik" />
      <path
         sodipodi:nodetypes="ccccccccccc"
         d="M 83.744691,1019.8275 97.913378,1034.0611 90.829035,1041.1455 76.660348,1026.9118 57.422132,1046.15 57.422132,1000.6542 67.431204,1000.6542 67.431204,1021.9723 90.829035,998.57443 97.913378,1005.6588 z"
         style="font-size:64.99397278px;font-style:normal;font-variant:normal;font-weight:normal;font-stretch:normal;line-height:125%;letter-spacing:0px;word-spacing:0px;fill:#000000;fill-opacity:1;stroke:none;font-family:ZipSonik;-inkscape-font-specification:ZipSonik"
         id="path3042"
         inkscape:connector-curvature="0" />
      <path
         sodipodi:nodetypes="ccccccccccccc"
         d="M 140.26304,1029.0566 140.26304,1039.0657 101.85161,1039.0657 101.85161,1014.8229 130.25397,1014.8229 130.25397,1010.6633 101.85161,1010.6633 101.85161,1000.6542 140.26304,1000.6542 140.26304,1024.832 111.86068,1024.832 111.86068,1029.0566 z"
         style="font-size:64.99397278px;font-style:normal;font-variant:normal;font-weight:normal;font-stretch:normal;line-height:125%;letter-spacing:0px;word-spacing:0px;fill:#000000;fill-opacity:1;stroke:none;font-family:ZipSonik;-inkscape-font-specification:ZipSonik"
         id="path3044"
         inkscape:connector-curvature="0" />
      <path
         d="M 149.12761,1029.0566 C 150.51414,1029.0566 151.68403,1029.5549 152.63729,1030.5515 153.63385,1031.5047 154.13214,1032.6746 154.13215,1034.0611 154.13214,1035.4477 153.63385,1036.6392 152.63729,1037.6358 151.68403,1038.5891 150.51414,1039.0657 149.12761,1039.0657 147.7844,1039.0657 146.61451,1038.5674 145.61794,1037.5708 144.62136,1036.5742 144.12308,1035.4044 144.12308,1034.0611 144.12308,1032.6746 144.5997,1031.5047 145.55294,1030.5515 146.54951,1029.5549 147.74107,1029.0566 149.12761,1029.0566"
         style="font-size:64.99397278px;font-style:normal;font-variant:normal;font-weight:normal;font-stretch:normal;line-height:125%;letter-spacing:0px;word-spacing:0px;fill:#000000;fill-opacity:1;stroke:none;font-family:ZipSonik;-inkscape-font-specification:ZipSonik"
         id="path3046"
         inkscape:connector-curvature="0" />
      <path
         sodipodi:nodetypes="ccccccccccccc"
         d="M 196.49806,1000.6542 196.49806,1010.6633 168.09569,1010.6633 168.09569,1014.8229 196.49806,1014.8229 196.49806,1039.0657 158.08662,1039.0657 158.08662,1029.0566 186.48899,1029.0566 186.48899,1024.832 158.08662,1024.832 158.08662,1000.6542 z"
         style="font-size:64.99397278px;font-style:normal;font-variant:normal;font-weight:normal;font-stretch:normal;line-height:125%;letter-spacing:0px;word-spacing:0px;fill:#000000;fill-opacity:1;stroke:none;font-family:ZipSonik;-inkscape-font-specification:ZipSonik"
         id="path3048"
         inkscape:connector-curvature="0" />
      <path
         sodipodi:nodetypes="ccccccccccc"
         d="M 226.68065,1019.8275 240.84934,1034.0611 233.76499,1041.1455 219.59631,1026.9118 200.35809,1046.15 200.35809,1000.6542 210.36716,1000.6542 210.36716,1021.9723 233.76499,998.57443 240.84934,1005.6588 z"
         style="font-size:64.99397278px;font-style:normal;font-variant:normal;font-weight:normal;font-stretch:normal;line-height:125%;letter-spacing:0px;word-spacing:0px;fill:#000000;fill-opacity:1;stroke:none;font-family:ZipSonik;-inkscape-font-specification:ZipSonik"
         id="path3050"
         inkscape:connector-curvature="0" />
    </g>
  </g>
</svg>
